<mxfile host="app.diagrams.net" modified="2024-01-25T15:24:07.385Z" agent="Mozilla/5.0 (Macintosh; Intel Mac OS X 10_15_7) AppleWebKit/605.1.15 (KHTML, like Gecko) Version/17.0 Safari/605.1.15" etag="TeFdM2Nn2ns9Gn4jZgLc" version="23.0.1" type="device">
  <diagram name="Page-1" id="NDewDQXh8GJ2ohnPGecQ">
    <mxGraphModel dx="435" dy="307" grid="1" gridSize="10" guides="1" tooltips="1" connect="1" arrows="1" fold="1" page="1" pageScale="1" pageWidth="400" pageHeight="300" math="0" shadow="0">
      <root>
        <mxCell id="0" />
        <mxCell id="1" parent="0" />
        <mxCell id="YE2acT_Aik6SvZDj6w7w-6" value="" style="endArrow=none;html=1;rounded=0;" parent="1" edge="1">
          <mxGeometry width="50" height="50" relative="1" as="geometry">
            <mxPoint x="50" y="50" as="sourcePoint" />
            <mxPoint x="144" y="140" as="targetPoint" />
          </mxGeometry>
        </mxCell>
        <mxCell id="YE2acT_Aik6SvZDj6w7w-13" value="" style="endArrow=none;html=1;rounded=0;" parent="1" edge="1">
          <mxGeometry width="50" height="50" relative="1" as="geometry">
            <mxPoint x="50" y="50" as="sourcePoint" />
            <mxPoint x="30" y="150" as="targetPoint" />
          </mxGeometry>
        </mxCell>
        <UserObject label="&lt;font style=&quot;font-size: 32px;&quot;&gt;Grey Belly&lt;/font&gt;" placeholders="1" name="Variable" id="YE2acT_Aik6SvZDj6w7w-23">
          <mxCell style="text;html=1;strokeColor=none;fillColor=none;align=left;verticalAlign=middle;whiteSpace=wrap;overflow=hidden;fontSize=24;" parent="1" vertex="1">
            <mxGeometry x="90" width="310" height="40" as="geometry" />
          </mxCell>
        </UserObject>
        <UserObject label="&lt;font style=&quot;font-size: 32px;&quot;&gt;Yellow Upper Part&lt;/font&gt;" placeholders="1" name="Variable" id="YE2acT_Aik6SvZDj6w7w-24">
          <mxCell style="text;html=1;strokeColor=none;fillColor=none;align=left;verticalAlign=middle;whiteSpace=wrap;overflow=hidden;" parent="1" vertex="1">
            <mxGeometry x="122" y="40" width="258" height="40" as="geometry" />
          </mxCell>
        </UserObject>
        <UserObject label="&lt;font style=&quot;font-size: 32px;&quot;&gt;Yellow Underpart&lt;/font&gt;" placeholders="1" name="Variable" id="YE2acT_Aik6SvZDj6w7w-27">
          <mxCell style="text;html=1;strokeColor=none;fillColor=none;align=left;verticalAlign=middle;whiteSpace=wrap;overflow=hidden;" parent="1" vertex="1">
            <mxGeometry x="150" y="80" width="248" height="40" as="geometry" />
          </mxCell>
        </UserObject>
        <UserObject label="&lt;font style=&quot;font-size: 32px;&quot;&gt;White Tail&lt;/font&gt;" placeholders="1" name="Variable" id="YE2acT_Aik6SvZDj6w7w-28">
          <mxCell style="text;html=1;strokeColor=none;fillColor=none;align=left;verticalAlign=middle;whiteSpace=wrap;overflow=hidden;" parent="1" vertex="1">
            <mxGeometry x="153" y="122" width="228" height="40" as="geometry" />
          </mxCell>
        </UserObject>
        <UserObject label="&lt;font style=&quot;font-size: 32px;&quot;&gt;Yellow Back&lt;/font&gt;" placeholders="1" name="Variable" id="YE2acT_Aik6SvZDj6w7w-29">
          <mxCell style="text;html=1;strokeColor=none;fillColor=none;align=left;verticalAlign=middle;whiteSpace=wrap;overflow=hidden;" parent="1" vertex="1">
            <mxGeometry x="90" y="164" width="238" height="38" as="geometry" />
          </mxCell>
        </UserObject>
        <UserObject label="&lt;font style=&quot;font-size: 32px;&quot;&gt;Striped Wing&lt;/font&gt;" placeholders="1" name="Variable" id="YE2acT_Aik6SvZDj6w7w-30">
          <mxCell style="text;html=1;strokeColor=none;fillColor=none;align=left;verticalAlign=middle;whiteSpace=wrap;overflow=hidden;" parent="1" vertex="1">
            <mxGeometry x="122" y="202" width="208" height="48" as="geometry" />
          </mxCell>
        </UserObject>
        <UserObject label="&lt;font style=&quot;font-size: 32px;&quot;&gt;Yellow Primary&lt;/font&gt;" placeholders="1" name="Variable" id="YE2acT_Aik6SvZDj6w7w-31">
          <mxCell style="text;html=1;strokeColor=none;fillColor=none;align=left;verticalAlign=middle;whiteSpace=wrap;overflow=hidden;fontSize=24;" parent="1" vertex="1">
            <mxGeometry x="150" y="246" width="228" height="38" as="geometry" />
          </mxCell>
        </UserObject>
        <mxCell id="8CMG1CeJF27HPNwrp2YU-2" value="" style="endArrow=none;html=1;rounded=0;entryX=0;entryY=0.5;entryDx=0;entryDy=0;" edge="1" parent="1">
          <mxGeometry width="50" height="50" relative="1" as="geometry">
            <mxPoint x="124" y="120" as="sourcePoint" />
            <mxPoint x="144" y="100" as="targetPoint" />
          </mxGeometry>
        </mxCell>
        <mxCell id="8CMG1CeJF27HPNwrp2YU-4" value="" style="endArrow=none;html=1;rounded=0;" edge="1" parent="1">
          <mxGeometry width="50" height="50" relative="1" as="geometry">
            <mxPoint x="90" y="88" as="sourcePoint" />
            <mxPoint x="120" y="60" as="targetPoint" />
          </mxGeometry>
        </mxCell>
        <mxCell id="8CMG1CeJF27HPNwrp2YU-5" value="" style="endArrow=none;html=1;rounded=0;" edge="1" parent="1">
          <mxGeometry width="50" height="50" relative="1" as="geometry">
            <mxPoint x="50" y="50" as="sourcePoint" />
            <mxPoint x="80" y="22" as="targetPoint" />
          </mxGeometry>
        </mxCell>
        <mxCell id="8CMG1CeJF27HPNwrp2YU-6" value="" style="endArrow=none;html=1;rounded=0;" edge="1" parent="1">
          <mxGeometry width="50" height="50" relative="1" as="geometry">
            <mxPoint x="30" y="150" as="sourcePoint" />
            <mxPoint x="100" y="280" as="targetPoint" />
          </mxGeometry>
        </mxCell>
        <mxCell id="8CMG1CeJF27HPNwrp2YU-7" value="" style="endArrow=none;html=1;rounded=0;entryX=0;entryY=0.5;entryDx=0;entryDy=0;" edge="1" parent="1" target="YE2acT_Aik6SvZDj6w7w-29">
          <mxGeometry width="50" height="50" relative="1" as="geometry">
            <mxPoint x="61" y="208" as="sourcePoint" />
            <mxPoint x="80" y="190" as="targetPoint" />
          </mxGeometry>
        </mxCell>
        <mxCell id="8CMG1CeJF27HPNwrp2YU-8" value="" style="endArrow=none;html=1;rounded=0;entryX=0;entryY=0.5;entryDx=0;entryDy=0;" edge="1" parent="1">
          <mxGeometry width="50" height="50" relative="1" as="geometry">
            <mxPoint x="84" y="250.34" as="sourcePoint" />
            <mxPoint x="113" y="225.34" as="targetPoint" />
          </mxGeometry>
        </mxCell>
        <mxCell id="8CMG1CeJF27HPNwrp2YU-9" value="" style="endArrow=none;html=1;rounded=0;" edge="1" parent="1">
          <mxGeometry width="50" height="50" relative="1" as="geometry">
            <mxPoint x="100" y="280.00000000000006" as="sourcePoint" />
            <mxPoint x="140" y="270" as="targetPoint" />
          </mxGeometry>
        </mxCell>
      </root>
    </mxGraphModel>
  </diagram>
</mxfile>
